<svg fill="none" height="366" viewBox="0 0 366 366" width="366" xmlns="http://www.w3.org/2000/svg" xmlns:xlink="http://www.w3.org/1999/xlink"><clipPath id="a"><path d="m0 0h366v366h-366z"/></clipPath><g clip-path="url(#a)"><path d="m183 366c-12.387.003-24.743-1.243-36.881-3.718-23.408-4.794-45.643-14.151-65.436-27.536-29.422-19.861-52.4528-47.829-66.3021-80.514-4.6793-11.071-8.25104-22.577-10.66294-34.351-4.95728-24.338-4.95728-49.425 0-73.762 4.79405-23.408 14.15054-45.643 27.53554-65.436 19.8616-29.422 47.8294-52.4528 80.5145-66.3021 11.071-4.6793 22.577-8.25104 34.351-10.66294 24.337-4.95728 49.424-4.95728 73.762 0 23.408 4.79399 45.643 14.15054 65.436 27.53554 29.422 19.8616 52.453 47.8294 66.302 80.5145 4.679 11.071 8.251 22.577 10.663 34.351 4.957 24.337 4.957 49.424 0 73.762-4.794 23.408-14.151 45.643-27.536 65.436-19.861 29.422-47.829 52.453-80.514 66.302-11.071 4.679-22.577 8.251-34.351 10.663-12.138 2.475-24.494 3.721-36.881 3.718zm0-333.2026c-10.167-.0025-20.309 1.0199-30.272 3.0516-19.213 3.9348-37.463 11.6145-53.7089 22.6007-24.149 16.3021-43.0523 39.2577-54.4194 66.0853-3.8408 9.086-6.7725 18.531-8.7522 28.195-4.0688 19.976-4.0688 40.567 0 60.543 3.9349 19.213 11.6145 37.463 22.6008 53.709 16.3026 24.149 39.2586 43.052 66.0867 54.418 9.086 3.841 18.531 6.773 28.195 8.752 19.976 4.069 40.567 4.069 60.543 0 19.212-3.935 37.462-11.614 53.707-22.6 24.15-16.303 43.053-39.259 54.42-66.087 3.841-9.086 6.773-18.531 8.752-28.195 4.069-19.976 4.069-40.567 0-60.543-3.934-19.213-11.614-37.463-22.6-53.7093-16.303-24.1487-39.259-43.0515-66.087-54.418-9.086-3.8408-18.531-6.7725-28.195-8.7522-9.962-2.0311-20.103-3.0529-30.27-3.0501z" fill="#fff" opacity=".6"/></g></svg>