<svg fill="none" height="240" viewBox="0 0 160 240" width="160" xmlns="http://www.w3.org/2000/svg" xmlns:xlink="http://www.w3.org/1999/xlink"><clipPath id="a"><path d="m0 0h160v240h-160z"/></clipPath><g clip-path="url(#a)"><g fill="#fff" opacity=".405"><path d="m70.444.643311h-11.9845v19.101889h-57.504941v14.0711h57.504941v19.1049h11.9845zm0 57.907289h-69.489441v43.2294h11.883441v-29.1542h18.1277v26.1384h11.8835v-26.1384h15.6103v29.1552h11.9845zm-21.5516 100.8354c15.2075-2.312 22.4583-11.662 22.4583-25.435 0-15.583-9.2652-26.546-30.7169-26.546h-9.8691c-21.24968 0-30.7168702 10.959-30.7168702 26.546 0 14.276 6.8479702 23.022 22.4583702 25.334v-13.372c-7.0499-1.508-10.5749-4.926-10.5749-11.964 0-8.143 5.9422-12.466 18.8324-12.466h9.8691c13.2961 0 18.8324 4.323 18.8324 12.466 0 6.836-4.0288 10.656-10.5748 11.964zm21.5516 21.916v-14.071h-69.489441v14.071h30.011141v24.028h-30.011141v14.071h69.489441v-14.071h-27.5918v-24.028z"/><path d="m119.15 205.623-5.039 3.511v-2.415l5.039-3.511zm-5.364-17.628 4.84 3.386v2.365l-4.84-3.386zm3.866 11.802 3.916-2.714v2.365l-3.916 2.715zm3.542-3.81h-6.136v9.512h-1.871v-11.504h8.007zm.6-3.81h3.442l-4.091-4.133h2.644l4.066 4.133h2.371v-4.109h1.846v4.109h2.299v1.817h-2.299v3.934h-1.846v-3.934h-1.699l-4.216 3.934v-2.415l1.622-1.519h-4.141zm12.047 15.837h-11.723v-9.441h11.723zm-1.771-1.868v-5.702h-1.5v5.702zm-3.218 0v-5.702h-1.547v5.702zm-4.964-5.702v5.702h1.7v-5.702z"/><path d="m155.877 99.777v-8.4447h-69.4892v8.6463h50.6572l-36.156 16.5884v7.743l36.458 16.889h-50.9592v8.646h69.4892v-8.547l-43.305-20.711z"/><path d="m81.0844 41.4091c-.0007-2.8032.2817-5.5992.8428-8.3459 1.0872-5.2968 3.2086-10.3281 6.2431-14.8066 4.5017-6.6571 10.8405-11.86824 18.2487-15.00229 2.509-1.05893 5.118-1.86722 7.787-2.413051 5.516-1.121679 11.203-1.121679 16.72 0 5.306 1.084861 10.346 3.202211 14.833 6.231231 6.669 4.49431 11.89 10.82271 15.029 18.21861 1.061 2.5051 1.87 5.1088 2.417 7.7731 1.124 5.5071 1.124 11.1837 0 16.6908-1.087 5.2968-3.208 10.328-6.242 14.8067-4.502 6.6577-10.842 11.8692-18.251 15.0032-2.509 1.0589-5.117 1.8672-7.786 2.4131-5.517 1.1216-11.204 1.1216-16.72 0-5.307-1.0856-10.347-3.2036-14.833-6.2333-6.6691-4.4936-11.8897-10.8213-15.0295-18.2166-1.0608-2.5051-1.8705-5.1088-2.4173-7.7731-.5608-2.7467-.8428-5.5428-.8418-8.3459zm75.5296 0c.001-2.3007-.231-4.5956-.692-6.8499-.892-4.3475-2.633-8.4771-5.123-12.1531-3.695-5.4643-8.899-9.7417-14.98-12.3138-2.059-.86926-4.2-1.53281-6.391-1.98094-4.528-.92073-9.196-.92073-13.724 0-4.355.89053-8.492 2.62844-12.174 5.11454-5.4745 3.6886-9.7596 8.8828-12.3366 14.9533-.8704 2.0561-1.5348 4.1932-1.9834 6.38-.9223 4.5202-.9223 9.1796 0 13.6999.8921 4.3475 2.6331 8.477 5.1235 12.1531 3.6951 5.4646 8.8985 9.7423 14.9795 12.3147 2.06.8689 4.201 1.5322 6.391 1.98 4.528.9207 9.196.9207 13.724 0 4.355-.8906 8.492-2.6285 12.175-5.1146 5.473-3.6887 9.758-8.8829 12.335-14.9533.87-2.0561 1.535-4.1932 1.983-6.3799.461-2.2543.693-4.5492.693-6.85z"/><path d="m81.0844 198.59c-.0007-2.803.2817-5.599.8428-8.346 1.0872-5.297 3.2086-10.328 6.2431-14.807 4.5017-6.657 10.8405-11.868 18.2487-15.002 2.509-1.059 5.118-1.867 7.787-2.413 5.516-1.122 11.203-1.122 16.72 0 5.306 1.085 10.346 3.202 14.833 6.231 6.669 4.494 11.89 10.823 15.029 18.219 1.061 2.505 1.87 5.109 2.417 7.773 1.124 5.507 1.124 11.184 0 16.691-1.087 5.296-3.208 10.328-6.242 14.806-4.502 6.658-10.842 11.87-18.251 15.004-2.509 1.058-5.117 1.867-7.786 2.413-5.517 1.121-11.204 1.121-16.72 0-5.307-1.086-10.347-3.204-14.833-6.234-6.6691-4.493-11.8897-10.821-15.0295-18.216-1.0608-2.505-1.8705-5.109-2.4173-7.773-.5608-2.747-.8428-5.543-.8418-8.346zm75.5296 0c.001-2.301-.231-4.596-.692-6.85-.892-4.348-2.633-8.477-5.123-12.153-3.695-5.465-8.899-9.742-14.98-12.314-2.059-.869-4.2-1.533-6.391-1.981-4.528-.921-9.196-.921-13.724 0-4.355.891-8.492 2.628-12.174 5.115-5.4745 3.688-9.7596 8.882-12.3366 14.953-.8704 2.056-1.5348 4.193-1.9834 6.38-.9223 4.52-.9223 9.18 0 13.7.8921 4.347 2.6331 8.477 5.1235 12.153 3.6951 5.464 8.8985 9.742 14.9795 12.315 2.06.869 4.201 1.532 6.391 1.98 4.528.92 9.196.92 13.724 0 4.355-.891 8.492-2.629 12.175-5.115 5.473-3.689 9.758-8.883 12.335-14.953.87-2.056 1.535-4.193 1.983-6.38.461-2.255.693-4.549.693-6.85z"/><path d="m61.4064 233.347c.0253.515.1534 1.02.3766 1.485s.5371.881.9234 1.224c.3862.342.837.605 1.326.771.489.167 1.0063.234 1.5217.198 2.5453 0 4.2638-1.533 4.2638-5.113v-1.452c0-3.58-1.7185-5.111-4.2638-5.111-2.2643 0-3.7509 1.122-4.1317 3.679h1.8354c.0158-.284.0882-.562.2129-.817.1247-.256.2992-.484.5133-.672.2141-.187.4635-.33.7336-.42.2702-.09.5556-.125.8395-.104 1.5206 0 2.3463 1.023 2.3463 3.448v1.449c0 2.458-.8267 3.448-2.3463 3.448-.5718.035-1.1346-.156-1.5654-.533s-.6946-.909-.7339-1.48zm-9.3533-2.887v1.452c0 3.58 1.7185 5.113 4.2798 5.113 2.5452 0 4.2637-1.533 4.2637-5.113v-1.452c0-3.58-1.7185-5.114-4.2637-5.114-2.5613.003-4.2798 1.534-4.2798 5.114zm6.6271 1.452c0 2.458-.8268 3.448-2.3463 3.448-1.5196 0-2.3633-.99-2.3633-3.448v-1.452c0-2.458.8427-3.448 2.3633-3.448 1.5205 0 2.3463.99 2.3463 3.448zm-10.081 4.965h1.8184v-11.383h-1.8504v7.573l-2.5623-5.378h-1.3546l-2.6112 5.426v-7.621h-1.8505v11.383h1.8375l3.285-6.599zm-14.3958-7.225c-2.6442 0-4.1987 1.319-4.1987 3.629 0 2.342 1.5695 3.593 4.1987 3.593h3.8859v-11.38h-1.9165v4.158zm1.9694 1.649v3.91h-1.7684c-1.7515 0-2.4793-.692-2.4793-1.93 0-1.303.7268-1.98 2.4793-1.98zm-7.4368-5.807-.7767 2.359h-4.1148l-.7768-2.359h-2.0354l3.9688 11.383h1.8185l3.9658-11.383zm-2.8251 8.611-1.5206-4.602h3.0401zm-12.1134 2.772v-7.835l4.6936 7.835h1.6525v-11.383h-1.8505v7.739l-4.6436-7.737h-1.6995v11.381zm-2.8922 0-3.55294-6.632v-4.751h-1.91543v4.751l-3.55395 6.632h2.21435l2.29932-4.553 2.27832 4.553z"/><path d="m124.17 27.2552-5.634 1.6965v1.2574l7.745 1.8263v-1.3892l-5.568-1.1876 5.568-1.6137v-1.1975l-5.539-1.5778 5.534-1.1875v-1.3892l-7.745 1.8263v1.2554zm2.111 5.7252h-7.745v4.7393h1.123v-3.4389h2.323v3.1036h1.123v-3.1036h2.042v3.4399h1.134zm-7.745 9.3339 1.606.5269v2.7943l-1.606.5269v1.3782l7.745-2.6895v-1.2325l-7.745-2.6895zm5.859 1.9161-3.132 1.0309v-2.0618zm-5.859 9.9166 3.356-1.6476c.139.4318.419.8045.796 1.058.376.2534.827.3729 1.28.3392 1.538 0 2.313-1.0649 2.313-2.8462v-2.6286h-7.745v1.2973h3.143v1.4969l-3.143 1.49zm4.266-4.4259h2.346v1.2455c0 1.0977-.3 1.6356-1.179 1.6356-.878 0-1.167-.5379-1.167-1.6356zm3.48 5.5466h-7.745v4.7393h1.123v-3.4399h2.322v3.1036h1.123v-3.1036h2.042v3.4399h1.134z"/></g></g></svg>