<svg fill="none" height="560" viewBox="0 0 91 560" width="91" xmlns="http://www.w3.org/2000/svg" xmlns:xlink="http://www.w3.org/1999/xlink"><clipPath id="a"><path d="m0 0h91v560h-91z"/></clipPath><g clip-path="url(#a)"><g fill="#fff" opacity=".388"><path d="m47.049 226.699-5.454 3.807v-2.619l5.454-3.807zm-5.805-19.116 5.238 3.675v2.565l-5.238-3.675zm4.185 12.8 4.239-2.945v2.565l-4.239 2.943zm3.834-4.133h-6.642v10.314h-2.025v-12.474h8.667zm.648-4.131h3.727l-4.428-4.482h2.862l4.4 4.482h2.566v-4.455h2v4.455h2.484v1.971h-2.484v4.268h-2v-4.268h-1.836l-4.564 4.268v-2.621l1.755-1.647h-4.482zm13.041 17.172h-12.69v-10.233h12.69zm-1.914-2.025v-6.183h-1.62v6.183zm-3.483 0v-6.183h-1.674v6.183zm-5.376-6.183v6.183h1.836v-6.183z"/><path d="m89.8481 102.467v-9.74h-80.03996v9.976h58.34796l-41.648 19.14v8.932l42 19.492h-58.69996v9.976h80.03996v-9.86l-49.88-23.9z"/><path d="m90.311 276.575h-14.042v22.42h-67.37796v16.52h67.37796v22.416h14.042zm0 67.968h-81.41996v50.74h13.92396v-34.22h21.24v30.68h13.924v-30.68h18.29v34.22h14.042zm-25.252 118.354c17.818-2.714 26.314-13.688 26.314-29.854 0-18.29-10.856-31.152-35.99-31.152h-11.564c-24.9 0-35.98995 12.862-35.98995 31.152 0 16.756 8.02395 27.022 26.31395 29.736v-15.694c-8.26-1.77-12.39-5.782-12.39-14.042 0-9.558 6.962-14.632 22.066-14.632h11.564c15.576 0 22.066 5.074 22.066 14.632 0 8.024-4.72 12.508-12.39 14.042zm25.252 25.724v-16.52h-81.41996v16.52h35.16396v28.2h-35.16396v16.52h81.41996v-16.52h-32.332v-28.2z"/><path d="m-.00008392 33.453c-.00230964-3.3472.33271692-6.6861.99999992-9.966 1.296544-6.3274 3.826694-12.3375 7.446004-17.68703 5.36838-7.94991 12.92698-14.17252 21.75998-17.91397 2.9908-1.266 6.0997-2.2327 9.281-2.886 6.5768-1.3397 13.3562-1.3397 19.933 0 6.3271 1.2966 12.3368 3.8268 17.686 7.44597 7.949 5.36681 14.1716 12.92318 17.914 21.75403 1.2663 2.9924 2.233 6.1029 2.886 9.286 1.3397 6.5768 1.3397 13.3562 0 19.933-1.2973 6.3253-3.8274 12.3332-7.446 17.681-5.3661 7.9508-12.9225 14.1752-21.754 17.919-2.9926 1.2645-6.1031 2.2296-9.286 2.881-6.5768 1.3396-13.3562 1.3396-19.933 0-6.3249-1.2955-12.3328-3.8235-17.681-7.44-7.9517-5.3677-14.17615-12.9264-17.91898-21.76-1.26423-2.9911-2.22927-6.0999-2.88101-9.281-.669302-3.2798-1.00633572-6.6187-1.00599392-9.966zm90.04298392 0c.0005-2.7475-.2759-5.488-.825-8.18-1.0635-5.1921-3.139-10.1239-6.108-14.514-4.4048-6.52606-10.6077-11.634701-17.857-14.70703-2.4554-1.03784-5.0075-1.83004-7.619-2.365-5.3982-1.09957-10.9627-1.09957-16.361 0-5.192 1.0635-10.1239 3.13898-14.514 6.108001-6.5258 4.405219-11.6341 10.608429-14.706 17.858029-1.0378 2.4554-1.83 5.0075-2.36499 7.619-1.09957 5.3982-1.09957 10.9627 0 16.361 1.06319 5.1919 3.13829 10.1238 6.10699 14.514 4.4055 6.526 10.6091 11.6343 17.859 14.706 2.4554 1.0378 5.0075 1.83 7.619 2.365 5.3983 1.0995 10.9628 1.0995 16.361 0 5.192-1.0632 10.1238-3.1384 14.514-6.107 6.526-4.4056 11.6343-10.6091 14.706-17.859 1.0379-2.4554 1.8301-5.0075 2.365-7.619.5488-2.6921.8249-5.4326.824-8.18z"/><path d="m-.00008392 221.165c-.00230964-3.347.33271692-6.686.99999992-9.966 1.296544-6.327 3.826694-12.337 7.446004-17.687 5.36838-7.95 12.92698-14.173 21.75998-17.914 2.9908-1.266 6.0997-2.233 9.281-2.886 6.5768-1.34 13.3562-1.34 19.933 0 6.3271 1.297 12.3368 3.827 17.686 7.446 7.949 5.367 14.1716 12.923 17.914 21.754 1.2663 2.992 2.233 6.103 2.886 9.286 1.3397 6.577 1.3397 13.356 0 19.933-1.2973 6.325-3.8274 12.333-7.446 17.681-5.3661 7.951-12.9225 14.175-21.754 17.919-2.9926 1.265-6.1031 2.23-9.286 2.881-6.5768 1.34-13.3562 1.34-19.933 0-6.3249-1.295-12.3328-3.824-17.681-7.44-7.9517-5.368-14.17615-12.926-17.91898-21.76-1.26423-2.991-2.22927-6.1-2.88101-9.281-.669302-3.28-1.00633572-6.619-1.00599392-9.966zm90.04298392 0c.0005-2.747-.2759-5.488-.825-8.18-1.0635-5.192-3.139-10.124-6.108-14.514-4.4048-6.526-10.6077-11.635-17.857-14.707-2.4554-1.038-5.0075-1.83-7.619-2.365-5.3982-1.1-10.9627-1.1-16.361 0-5.192 1.064-10.1239 3.139-14.514 6.108-6.5258 4.405-11.6341 10.608-14.706 17.858-1.0378 2.455-1.83 5.008-2.36499 7.619-1.09957 5.398-1.09957 10.963 0 16.361 1.06319 5.192 3.13829 10.124 6.10699 14.514 4.4055 6.526 10.6091 11.634 17.859 14.706 2.4554 1.038 5.0075 1.83 7.619 2.365 5.3983 1.1 10.9628 1.1 16.361 0 5.192-1.063 10.1238-3.138 14.514-6.107 6.526-4.406 11.6343-10.609 14.706-17.859 1.0379-2.455 1.8301-5.007 2.365-7.619.5488-2.692.8249-5.433.824-8.18z"/><path d="m80.3169 556.85c.0247.499.1486.989.3644 1.439.2159.451.5195.855.893 1.187.3736.332.8095.586 1.2825.748s.9734.228 1.4721.194c2.468 0 4.132-1.484 4.132-4.96v-1.408c0-3.472-1.664-4.96-4.132-4.96-2.192 0-3.632 1.088-4 3.568h1.78c.0154-.275.0853-.544.2056-.791.1203-.248.2887-.469.4954-.65.2066-.182.4473-.321.7081-.408.2609-.088.5365-.123.8109-.103 1.472 0 2.272.992 2.272 3.344v1.408c0 2.384-.8 3.344-2.272 3.344-.5526.033-1.0959-.154-1.5116-.519-.4157-.366-.6703-.881-.7084-1.433zm-9.056-2.8v1.408c0 3.472 1.664 4.96 4.144 4.96 2.464 0 4.124-1.484 4.124-4.96v-1.408c0-3.472-1.664-4.96-4.128-4.96-2.472 0-4.14 1.488-4.14 4.96zm6.416 1.408c0 2.384-.8 3.344-2.272 3.344s-2.288-.96-2.288-3.344v-1.408c0-2.384.816-3.344 2.288-3.344s2.272.96 2.272 3.344zm-9.76 4.816h1.76v-11.04h-1.792v7.344l-2.48-5.216h-1.312l-2.528 5.264v-7.392h-1.792v11.04h1.776l3.18-6.4zm-13.936-7.008c-2.56 0-4.064 1.28-4.064 3.52 0 2.272 1.52 3.488 4.064 3.488h3.76v-11.04h-1.856v4.032zm1.9 1.6v3.792h-1.712c-1.7 0-2.4-.672-2.4-1.872 0-1.264.7-1.92 2.4-1.92zm-7.196-5.632-.756 2.288h-3.98l-.752-2.288h-1.968l3.84 11.04h1.76l3.84-11.04zm-2.736 8.352-1.472-4.464h2.944zm-11.728 2.688v-7.6l4.544 7.6h1.6v-11.04h-1.792v7.5l-4.5-7.5h-1.644v11.04zm-2.8 0-3.44-6.432v-4.608h-1.852v4.608l-3.44 6.432h2.14l2.224-4.416 2.208 4.416z"/></g></g></svg>