<svg fill="none" height="192" viewBox="0 0 1201 192" width="1201" xmlns="http://www.w3.org/2000/svg" xmlns:xlink="http://www.w3.org/1999/xlink"><clipPath id="a"><path d="m0 0h1201v192h-1201z"/></clipPath><g clip-path="url(#a)"><g fill="#fff" opacity=".388"><path d="m510.76 97.5651 8.601 12.3219h-5.917l-8.6-12.3219zm-43.188 13.1149 8.3-11.8339h5.8l-8.3 11.8339zm28.914-9.455-6.649-9.5769h5.8l6.644 9.5769zm-9.333-8.6619v15.0059h23.3v4.575h-28.18v-19.5809zm-9.333-1.464v-8.418l-10.126 10v-6.466l10.126-9.943v-5.8h-10.065v-4.514h10.065v-5.612h4.453v5.612h9.638v4.514h-9.638v4.148l9.638 10.318h-5.914l-3.721-3.965v10.126zm38.796-29.461v28.67h-23.119v-28.67zm-4.575 4.331h-13.969v3.66h13.969zm0 7.869h-13.969v3.782h13.969zm-13.969 12.137h13.969v-4.148h-13.969z"/><path d="m248.054 4.91199h-20.664v169.74001h21.156v-123.738l40.59 88.314h18.944l41.328-89.052v124.476h21.156v-169.74001h-20.91l-50.674 105.78001z"/><path d="m66.7601 84.133 3.624 12.048h2.712l3.912-16.56h-2.976l-2.544 11.9-3.456-11.9h-2.568l-3.384 11.832-2.544-11.832h-2.976l3.912 16.56h2.688zm12.264-4.512v16.56h10.152v-2.4h-7.368v-4.968h6.648v-2.4h-6.648v-4.368h7.368v-2.424zm19.992 16.56 1.1319-3.432h5.972l1.128 3.432h2.952l-5.76-16.56h-2.64l-5.7599 16.56zm4.0999-12.528 2.208 6.7h-4.412zm21.244 12.528-3.528-7.176c.926-.2951 1.726-.8937 2.271-1.6993.544-.8056.801-1.7711.729-2.7407 0-3.288-2.28-4.944-6.1-4.944h-5.64v16.56h2.784v-6.72h3.216l3.196 6.72zm-9.48-9.12v-5.016h2.668c2.352 0 3.5.648 3.5 2.52s-1.152 2.5-3.5 2.5zm11.88-7.44v16.56h10.152v-2.4h-7.364v-4.968h6.648v-2.4h-6.648v-4.368h7.368v-2.424z"/><path d="m610.632 5.35997v29.51203h47.116v141.608h34.72v-141.608h47.12v-29.51203zm142.848 0v171.12003h106.64v-29.264h-71.92v-44.636h64.48v-29.264h-64.48v-38.44h71.92v-29.51603zm248.74 53.07203c-5.696-37.448-28.764-55.30004-62.74-55.30004-38.44 0-65.472 22.81604-65.472 75.64004v24.3c0 52.328 27.032 75.64 65.472 75.64 35.216 0 56.792-16.864 62.5-55.3h-32.988c-3.72 17.36-12.152 26.04-29.512 26.04-20.088 0-30.752-14.632-30.752-46.376v-24.3c0-32.736 10.664-46.376 30.752-46.376 16.864 0 26.288 9.92 29.512 26.04zm54.07-53.07203h-34.72v171.12003h34.72v-73.9h59.27v73.9h34.72v-171.12003h-34.72v67.95203h-59.27z"/><path d="m103.386 192.698c-6.9839 0-13.9501-.703-20.7929-2.1-13.1976-2.703-25.7337-7.978-36.893-15.525-16.5873-11.197-29.572-26.963-37.38104-45.389-2.63692-6.242-4.6494-12.729-6.008-19.367-2.794956-13.7215-2.794956-27.8656 0-41.587 2.70189-13.1969 7.97584-25.7327 15.52104-36.892 11.1976-16.5879 26.9654-29.57267 45.393-37.381 6.2415-2.63692 12.7288-4.6494 19.367-6.008 13.7214-2.795 27.8659-2.795 41.5869 0 13.198 2.70266 25.734 7.97767 36.893 15.524 16.588 11.1979 29.573 26.966 37.381 45.394 2.638 6.2414 4.652 12.7287 6.012 19.367 2.795 13.7215 2.795 27.8655 0 41.587-2.703 13.198-7.978 25.734-15.525 36.893-11.198 16.588-26.966 29.573-45.394 37.381-6.241 2.638-12.729 4.652-19.367 6.012-6.843 1.394-13.809 2.094-20.793 2.091zm0-187.859c-5.7323-.00153-11.4502.57471-17.0669 1.72-10.8324 2.21869-21.1217 6.5487-30.281 12.743-13.6154 9.1911-24.2732 22.1334-30.682 37.259-2.1655 5.1241-3.8183 10.4501-4.934 15.9-2.294 11.2624-2.294 22.8716 0 34.134 2.2184 10.832 6.5481 21.122 12.742 30.281 9.1923 13.612 22.1346 24.267 37.259 30.673 5.1241 2.165 10.4501 3.818 15.9 4.934 11.2623 2.294 22.8719 2.294 34.1339 0 10.83-2.216 21.118-6.543 30.277-12.734 13.614-9.193 24.27-22.136 30.677-37.262 2.166-5.124 3.818-10.45 4.934-15.9 2.294-11.2624 2.294-22.8716 0-34.134-2.216-10.8303-6.543-21.1182-12.734-30.277-9.191-13.6154-22.133-24.2732-37.259-30.682-5.124-2.16551-10.45-3.81824-15.9-4.934-5.616-1.14555-11.334-1.72213-17.066-1.721z"/><path d="m495.015 192.698c-6.984 0-13.95-.703-20.793-2.1-13.198-2.703-25.734-7.978-36.893-15.525-16.587-11.197-29.572-26.963-37.381-45.389-2.637-6.242-4.649-12.729-6.008-19.367-2.795-13.7215-2.795-27.8656 0-41.587 2.702-13.1969 7.976-25.7327 15.521-36.892 11.198-16.5879 26.965-29.57267 45.393-37.381 6.242-2.63692 12.729-4.6494 19.367-6.008 13.721-2.795 27.866-2.795 41.587 0 13.197 2.70266 25.734 7.97767 36.893 15.524 16.588 11.1979 29.573 26.966 37.381 45.394 2.638 6.2414 4.652 12.7287 6.012 19.367 2.795 13.7215 2.795 27.8655 0 41.587-2.703 13.198-7.978 25.734-15.525 36.893-11.198 16.588-26.966 29.573-45.394 37.381-6.241 2.638-12.729 4.652-19.367 6.012-6.843 1.394-13.809 2.094-20.793 2.091zm0-187.859c-5.732-.00153-11.45.57471-17.067 1.72-10.832 2.21869-21.122 6.5487-30.281 12.743-13.615 9.1911-24.273 22.1334-30.682 37.259-2.166 5.1241-3.818 10.4501-4.934 15.9-2.294 11.2624-2.294 22.8716 0 34.134 2.218 10.832 6.548 21.122 12.742 30.281 9.192 13.612 22.135 24.267 37.259 30.673 5.124 2.165 10.45 3.818 15.9 4.934 11.262 2.294 22.872 2.294 34.134 0 10.83-2.216 21.118-6.543 30.277-12.734 13.614-9.193 24.27-22.136 30.677-37.262 2.165-5.124 3.818-10.45 4.934-15.9 2.294-11.2624 2.294-22.8716 0-34.134-2.216-10.8303-6.543-21.1182-12.734-30.277-9.191-13.6154-22.133-24.2732-37.259-30.682-5.124-2.16551-10.45-3.81824-15.9-4.934-5.616-1.14555-11.334-1.72213-17.066-1.721z"/><path d="m1193.38 27.146c5.55-.851 8.25-4.218 8.25-9.287 0-5.7-3.44-9.54601-11.47-9.54601h-3.25c-8.03 0-11.47 3.84801-11.47 9.54601 0 5.069 2.51 8.4 8.25 9.25v-4.107c-3.11-.665-4.52-2.22-4.52-5.143 0-3.4 2.29-5.254 7.73-5.254h3.26c5.51 0 7.73 1.85 7.73 5.254 0 2.812-1.4 4.477-4.51 5.143zm-6.47 20.942h3.25c8.03 0 11.47-3.848 11.47-9.583 0-5.7-3.44-9.546-11.47-9.546h-3.25c-8.03 0-11.47 3.848-11.47 9.546 0 5.732 3.44 9.583 11.47 9.583zm3.25-14.837c5.52 0 7.74 1.85 7.74 5.254s-2.22 5.291-7.74 5.291h-3.25c-5.52 0-7.74-1.887-7.74-5.291s2.22-5.254 7.74-5.254zm11.14 22.57v-4.07h-25.53v4.144h16.98l-12.06 5.735v3.034l12.17 5.846h-17.09v4.144h25.53v-4.107l-14.8-7.363zm-16.21 32.227c0 5.92 2.96 9.4 8.14 9.4 5.26 0 8.07-3.515 8.07-9.4v-8.7h-25.53v4.292h9.32zm3.7-4.4h8.77v3.959c0 3.922-1.55 5.55-4.33 5.55-2.92 0-4.44-1.628-4.44-5.55zm-13.02 16.647 5.29 1.742v9.213l-5.29 1.736v4.551l25.53-8.88v-4.07l-25.53-8.88zm19.31 6.327-10.32 3.4v-6.804zm6.22 27.121h-17.58l17.58-10.506v-3.7h-25.53v4.144h17.35l-17.35 10.395v3.811h25.53zm0 6.475-14.87 7.955h-10.66v4.292h10.66l14.87 7.955v-4.958l-10.21-5.143 10.21-5.106z"/></g></g></svg>