<svg fill="none" height="528" viewBox="0 0 528 528" width="528" xmlns="http://www.w3.org/2000/svg" xmlns:xlink="http://www.w3.org/1999/xlink"><clipPath id="a"><path d="m0 0h528v528h-528z"/></clipPath><g clip-path="url(#a)" fill="#fff"><path d="m264 528c-17.871.004-35.696-1.793-53.205-5.364-33.77-6.917-65.846-20.415-94.4-39.724-42.4451-28.653-75.6699-68.999-95.6494-116.151-6.7504-15.971-11.90283-32.571-15.38204-49.556-7.15141-35.11-7.15141-71.301 0-106.41 6.91614-33.77 20.41424-65.847 39.72404-94.4 28.6523-42.4452 68.9984-75.67 116.1514-95.6494 15.97-6.7504 32.57-11.90284 49.556-15.38204 35.109-7.15141 71.3-7.15141 106.41 0 33.769 6.91604 65.846 20.41414 94.4 39.72404 42.444 28.6526 75.669 68.9994 95.649 116.1524 6.75 15.97 11.903 32.569 15.383 49.555 7.151 35.109 7.151 71.3 0 106.41-6.917 33.769-20.415 65.846-39.724 94.4-28.653 42.444-69 75.669-116.152 95.649-15.971 6.75-32.57 11.903-49.555 15.383-17.511 3.57-35.336 5.367-53.206 5.363zm0-480.6884c-14.668-.0043-29.299 1.4698-43.67 4.4-27.717 5.6752-54.045 16.7525-77.482 32.6-34.838 23.5174-62.1088 56.6334-78.5074 95.3364-5.5413 13.11-9.7706 26.737-12.626 40.682-5.8698 28.817-5.8698 58.522 0 87.34 5.6752 27.716 16.7525 54.045 32.6 77.482 23.5174 34.838 56.6334 62.108 95.3364 78.507 13.108 5.54 26.733 9.77 40.675 12.626 28.817 5.869 58.522 5.869 87.34 0 27.716-5.676 54.045-16.753 77.482-32.6 34.838-23.518 62.108-56.634 78.507-95.336 5.54-13.109 9.77-26.734 12.626-40.675 5.869-28.818 5.869-58.523 0-87.34-5.676-27.717-16.753-54.045-32.6-77.482-23.518-34.838-56.634-62.1088-95.336-78.5074-13.109-5.5422-26.733-9.7728-40.675-12.63-14.372-2.9312-29.003-4.4063-43.67-4.403z"/><path d="m337.372 311.99 36.519 52.318h-25.123l-36.519-52.318zm-183.372 55.685 35.224-50.246h24.605l-35.224 50.246zm122.766-40.145-28.231-40.663h24.605l28.231 40.663zm-39.627-36.778v63.714h98.938v19.425h-119.658v-83.139zm-39.627-6.216v-35.742l-42.994 42.476v-27.454l42.994-42.217v-24.605h-42.735v-19.166h42.735v-23.828h18.907v23.828h40.922v19.166h-40.922v17.612l40.922 43.771h-25.123l-15.799-16.835v42.994zm164.724-125.097v121.73h-98.161v-121.73zm-19.425 18.389h-59.311v15.54h59.311zm0 33.411h-59.311v16.058h59.311zm-59.311 51.541h59.311v-17.612h-59.311z"/></g></svg>