<svg fill="none" height="770" viewBox="0 0 770 770" width="770" xmlns="http://www.w3.org/2000/svg" xmlns:xlink="http://www.w3.org/1999/xlink"><clipPath id="a"><path d="m0 0h770v770h-770z"/></clipPath><g clip-path="url(#a)"><path d="m385 770c-26.061.006-52.056-2.614-77.591-7.822-49.247-10.086-96.025-29.77-137.666-57.93-61.899-41.786-110.3515-100.625-139.4881-169.389-9.8444-23.29-17.3587-47.497-22.43296-72.268-10.42926-51.202-10.42926-103.98 0-155.182 10.08586-49.247 29.77026-96.025 57.92996-137.666 41.7851-61.899 100.6251-110.3517 169.3891-139.4881 23.29-9.8444 47.497-17.3588 72.268-22.43296 51.202-10.42926 103.98-10.42926 155.182 0 49.246 10.08576 96.025 29.77016 137.666 57.92996 61.899 41.7851 110.352 100.6251 139.488 169.3891 9.844 23.29 17.359 47.497 22.433 72.268 10.429 51.202 10.429 103.98 0 155.182-10.086 49.246-29.77 96.025-57.93 137.666-41.785 61.899-100.625 110.351-169.389 139.488-23.29 9.844-47.497 17.359-72.268 22.433-25.535 5.208-51.53 7.828-77.591 7.822zm0-701.0001c-21.391-.0051-42.727 2.1458-63.686 6.42-40.421 8.2782-78.816 24.4349-112.995 47.5481-50.805 34.297-90.575 82.591-114.4891 139.032-8.0802 19.116-14.248 38.985-18.413 59.317-8.5601 42.026-8.5601 85.346 0 127.372 8.2783 40.421 24.435 78.816 47.5481 112.995 34.298 50.805 82.593 90.573 139.035 114.486 19.116 8.08 38.985 14.248 59.317 18.413 42.026 8.56 85.346 8.56 127.372 0 40.42-8.279 78.813-24.436 112.991-47.548 50.806-34.297 90.576-82.593 114.49-139.035 8.08-19.116 14.248-38.985 18.413-59.317 8.56-42.026 8.56-85.346 0-127.372-8.278-40.421-24.435-78.817-47.548-112.995-34.298-50.805-82.594-90.573-139.035-114.4861-19.116-8.0803-38.985-14.248-59.317-18.413-20.958-4.273-42.294-6.4229-63.683-6.417z" fill="#fff"/></g></svg>