<svg xmlns="http://www.w3.org/2000/svg" width="26" height="26" viewBox="0 0 26 26"><path d="M9.14,1.578c1.386-.064,1.828-.078,5.36-.078s3.973.015,5.358.078a9.567,9.567,0,0,1,3.158.6,6.655,6.655,0,0,1,3.8,3.8,9.561,9.561,0,0,1,.605,3.155c.064,1.389.078,1.831.078,5.361s-.015,3.973-.078,5.36a9.531,9.531,0,0,1-.605,3.155,6.637,6.637,0,0,1-3.8,3.8,9.561,9.561,0,0,1-3.155.605c-1.387.064-1.829.078-5.361.078s-3.973-.015-5.36-.078a9.531,9.531,0,0,1-3.155-.605,6.378,6.378,0,0,1-2.3-1.5,6.372,6.372,0,0,1-1.5-2.3,9.6,9.6,0,0,1-.6-3.155C1.514,18.472,1.5,18.03,1.5,14.5s.015-3.973.078-5.358a9.567,9.567,0,0,1,.6-3.158,6.377,6.377,0,0,1,1.5-2.3,6.372,6.372,0,0,1,2.3-1.5,9.6,9.6,0,0,1,3.155-.6Zm10.613,2.34c-1.371-.063-1.782-.076-5.253-.076s-3.882.013-5.253.076a7.185,7.185,0,0,0-2.414.448A4.293,4.293,0,0,0,4.366,6.832a7.185,7.185,0,0,0-.448,2.414c-.063,1.371-.076,1.782-.076,5.253s.013,3.882.076,5.253a7.185,7.185,0,0,0,.448,2.414,4.293,4.293,0,0,0,2.466,2.466,7.185,7.185,0,0,0,2.414.448c1.371.063,1.781.076,5.253.076s3.882-.013,5.253-.076a7.185,7.185,0,0,0,2.414-.448,4.293,4.293,0,0,0,2.466-2.466,7.185,7.185,0,0,0,.448-2.414c.063-1.371.076-1.782.076-5.253s-.013-3.882-.076-5.253a7.185,7.185,0,0,0-.448-2.414,4.293,4.293,0,0,0-2.466-2.466,7.185,7.185,0,0,0-2.414-.448ZM12.84,18.508A4.337,4.337,0,1,0,10.164,14.5a4.336,4.336,0,0,0,2.676,4.007ZM9.775,9.775a6.682,6.682,0,1,1,0,9.45,6.682,6.682,0,0,1,0-9.45Zm12.889-.962a1.58,1.58,0,1,0-2.2-.032,1.58,1.58,0,0,0,2.2.032Z" transform="translate(-1.5 -1.5)" fill="#fff"/></svg>