<svg xmlns="http://www.w3.org/2000/svg" width="31" height="29" viewBox="0 0 31 29"><g transform="translate(0.5 0.499)"><path d="M14.176,28a.506.506,0,0,1-.4-.153,1.06,1.06,0,0,1-.076-.816L13.7,27c.024-.153.117-.7.173-1.023l.04-.235a2.8,2.8,0,0,0-.049-1.329c-.164-.4-.808-.613-1.32-.725a16.23,16.23,0,0,1-8.976-4.019A10.617,10.617,0,0,1,0,11.923C0,5.348,6.73,0,15,0S30,5.348,30,11.923a10.569,10.569,0,0,1-3.213,7.337,37.964,37.964,0,0,1-6.474,5.347A40.232,40.232,0,0,1,15,27.79,2.316,2.316,0,0,1,14.176,28ZM20.8,8.747a.285.285,0,0,0-.288.279v6.41a.287.287,0,0,0,.288.286h4.215a.284.284,0,0,0,.285-.283V14.4a.284.284,0,0,0-.285-.282H22.147V13.037h2.865a.284.284,0,0,0,.285-.283V11.716a.284.284,0,0,0-.285-.283H22.147V10.351h2.865a.283.283,0,0,0,.285-.281V9.027a.283.283,0,0,0-.285-.279H20.8ZM18.021,15.7a.019.019,0,0,1,.01,0l0,0,.01,0h.007l.012,0a.2.2,0,0,0,.079.013H19.2a.284.284,0,0,0,.285-.283V9.027a.283.283,0,0,0-.285-.279H18.138a.285.285,0,0,0-.288.279v3.811L14.856,8.876l-.007-.009-.005,0a.127.127,0,0,0-.011-.015.077.077,0,0,0-.011-.014h0l0,0,0-.007a.082.082,0,0,1-.02-.016h0a.019.019,0,0,1-.01-.006l0,0s-.007,0-.008-.007h0s-.006,0-.009-.006l-.005,0a.024.024,0,0,0-.01,0,.015.015,0,0,0-.01,0,.061.061,0,0,0-.016-.009l-.01,0H14.7l-.011,0a.014.014,0,0,0-.01,0l-.008,0-.009,0h-.029a.018.018,0,0,0-.013,0H13.556a.285.285,0,0,0-.289.279v6.412a.286.286,0,0,0,.289.283h1.061a.282.282,0,0,0,.288-.283v-3.8l0,0,3,3.964a.335.335,0,0,0,.072.069.065.065,0,0,0,.019.011c.007,0,.008,0,.01.009h0a.016.016,0,0,1,.012.006ZM10.9,8.747a.284.284,0,0,0-.288.279v6.412a.282.282,0,0,0,.288.283h1.061a.286.286,0,0,0,.288-.283V9.027a.284.284,0,0,0-.288-.279Zm-5.689,0a.283.283,0,0,0-.285.279v6.41a.286.286,0,0,0,.285.286H9.423a.284.284,0,0,0,.285-.283V14.4a.284.284,0,0,0-.285-.282H6.557V9.027a.283.283,0,0,0-.285-.279Z" transform="translate(0 0.001)" fill="#fff" stroke="rgba(0,0,0,0)" stroke-miterlimit="10" stroke-width="1"/></g></svg>