<svg height="100" viewBox="0 0 102 100" width="102" xmlns="http://www.w3.org/2000/svg" xmlns:xlink="http://www.w3.org/1999/xlink"><clipPath id="a"><path d="m0 0h102v100h-102z"/></clipPath><g clip-path="url(#a)"><path d="m51 0c-28.166 0-51 22.386-51 50s22.834 50 51 50 51-22.386 51-50-22.833-50-51-50m-41.295 60.563c-8.777-35.528 29.369-63.904 61.762-47.02 6.8 3.543 12.639 10.012 16.388 16.6.5.872 2.536 1.063 1.353 4.094-2.056.036-4.238 1.614-6.167 1.571-2.068-.048-3.041-1.846-5.141-2.187-11-1.786-20.07 2.976-27.8 10.1-3.368 3.1-4.878 7.368-9.825 8.4-12.895 2.679-13.24-3.221-9.458-13.368 10.563-.508 25.538-3.844 32.115-12.783 3.558-4.836 4.969-11.368-2.6-12.657-18.332-3.124-40.706 12.322-44.793 30.251-3.775 16.561 13.1 17.828 24.314 11.768l1.038 1.718c-2.538 2.943-3.565 9.581-.3 12.076 6.174 4.717 12.279-.113 18.676-.378a33.071 33.071 0 0 1 -7.707 8.32c-16.523 12.788-37.123 2.647-41.855-16.505m66.959-18.085c-.97 2.091-12.125 18.943-13.422 20.055-2.608 2.238-7.959 3.752-11.338 2.638-4.332-3 7.862-19.858 10.555-22.63 1.616-1.664 6.328-5.153 8.5-5.711 5.1-1.307 8.133.41 5.7 5.648m-44.47-6.723 8.476-12.988c1.764-2.09 9.738-10.431 12.43-6.631 1.744 11.918-9.828 19.623-20.906 19.619m46.462 45.666c-13.486 11.287-30.257 12.529-46.467 6.541.042-3.571 5.355-1.39 7.651-1.409 20.67-.172 37.035-21.367 46.518-37.386.412-.7 4.947-11 6.592-9.053-.156 4.594 1.116 8.722.723 13.4-.876 10.4-7.008 21.2-15.016 27.907" fill="#fff"/></g></svg>