<svg fill="none" height="508" viewBox="0 0 508 508" width="508" xmlns="http://www.w3.org/2000/svg" xmlns:xlink="http://www.w3.org/1999/xlink"><clipPath id="a"><path d="m0 0h508v508h-508z"/></clipPath><g clip-path="url(#a)"><path d="m423.632 364.994 84.368 120.871h-58.04l-84.368-120.871zm-423.632 128.646 81.3757-116.081h56.8433l-81.3757 116.081zm283.616-92.745-65.218-93.941h56.843l65.221 93.941zm-91.545-84.966v147.195h228.57v44.876h-276.438v-192.071zm-91.548-14.358v-82.573l-99.3263 98.13v-63.425l99.3263-97.531v-56.8438h-98.72796v-44.278h98.72796v-55.04824688h43.68v55.04824688h94.539v44.278h-94.539v40.6878l94.539 101.119h-58.04l-36.499-38.892v99.328zm380.551-289.0057v281.2247h-226.775v-281.2247zm-44.876 42.4829h-137.022v35.9011h137.022zm0 77.1878h-137.022v37.097h137.022zm-137.022 119.069h137.022v-40.688h-137.022z" fill="#fff" opacity=".78"/></g></svg>