<svg fill="none" height="515" viewBox="0 0 748 515" width="748" xmlns="http://www.w3.org/2000/svg" xmlns:xlink="http://www.w3.org/1999/xlink"><clipPath id="a"><path d="m0 0h748v515h-748z"/></clipPath><g clip-path="url(#a)"><g fill="#fff" opacity=".6"><path d="m638.314 138.404 10.574 15.161h-7.274l-10.574-15.161zm-53.093 16.137 10.198-14.561h7.125l-10.199 14.561zm35.545-11.634-8.174-11.784h7.124l8.174 11.784zm-11.473-10.658v18.464h28.646v5.629h-34.646v-24.093zm-11.474-1.801v-10.358l-12.448 12.309v-7.956l12.448-12.234v-7.131h-12.373v-5.5539h12.373v-6.9053h5.474v6.9053h11.849v5.5539h-11.849v5.104l11.849 12.685h-7.274l-4.575-4.879v12.46zm47.694-36.253v35.277h-28.421v-35.277zm-5.624 5.3291h-17.173v4.5029h17.173zm0 9.6819h-17.173v4.654h17.173zm-17.173 14.937h17.173v-5.104h-17.173z"/><path d="m3.4585 297.444v37.038h59.0826v177.717h43.5349v-177.717h59.082v-37.038zm179.1135 0v214.755h133.713v-36.729h-90.178v-56.022h80.849v-36.728h-80.849v-48.237h90.178v-37.039zm311.894 66.605c-7.156-47-36.072-69.406-78.673-69.406-48.199 0-82.09 28.634-82.09 94.928v30.501c0 65.671 33.896 94.928 82.09 94.928 44.156 0 71.21-21.164 78.362-69.406h-41.358c-4.664 21.786-15.237 32.679-37.004 32.679-25.188 0-38.559-18.363-38.559-58.202v-30.501c0-41.084 13.371-58.202 38.559-58.202 21.145 0 32.962 12.45 37.004 32.68zm67.792-66.605h-43.535v214.755h43.535v-92.749h74.319v92.749h43.535v-214.755h-43.535v85.28h-74.322z"/><path d="m730.061 325.42c7.349-1.128 10.925-5.591 10.925-12.31 0-7.551-4.556-12.651-15.188-12.651h-4.311c-10.632 0-15.188 5.104-15.188 12.651 0 6.718 3.331 11.132 10.925 12.26v-5.442c-4.115-.883-5.977-2.943-5.977-6.817 0-4.511 3.038-6.963 10.24-6.963h4.311c7.299 0 10.24 2.452 10.24 6.963 0 3.727-1.862 5.934-5.977 6.817zm-8.574 27.755h4.311c10.632 0 15.188-5.104 15.188-12.701 0-7.552-4.556-12.651-15.188-12.651h-4.311c-10.632 0-15.188 5.103-15.188 12.651 0 7.601 4.556 12.701 15.188 12.701zm4.311-19.664c7.299 0 10.24 2.452 10.24 6.963 0 4.512-2.94 7.013-10.24 7.013h-4.311c-7.299 0-10.24-2.502-10.24-7.013 0-4.51 2.94-6.963 10.24-6.963zm14.747 29.913v-5.394h-33.805v5.492h22.488l-15.972 7.606v4.021l16.119 7.748h-22.635v5.492h33.805v-5.448l-19.597-9.759zm-21.459 42.711c0 7.846 3.92 12.456 10.779 12.456 6.957 0 10.68-4.659 10.68-12.456v-11.523h-33.805v5.688h12.346zm4.899-5.835h11.612v5.247c0 5.198-2.058 7.356-5.732 7.356-3.871 0-5.88-2.158-5.88-7.356zm-17.245 22.067 7.006 2.302v12.209l-7.006 2.309v6.031l33.805-11.769v-5.394l-33.805-11.769zm25.574 8.385-13.669 4.512v-9.023zm8.231 35.945h-23.272l23.272-13.927v-4.904h-33.805v5.493h22.978l-22.978 13.776v5.051h33.805zm0 8.581-19.697 10.543h-14.108v5.689h14.11l19.697 10.543v-6.571l-13.522-6.816 13.52-6.768z"/><path d="m310.401 23.9513h-26.037v214.0637h26.657v-156.0494l51.144 111.3754h23.867l52.073-112.3061v156.9801h26.657v-214.0637h-26.347l-63.852 133.4017z"/><path d="m84.1961 123.158 4.9824 16.579h3.7286l5.3783-22.788h-4.0915l-3.4976 16.383-4.7544-16.383h-3.5305l-4.6495 16.283-3.4995-16.282h-4.0915l5.3803 22.787h3.6996zm16.8609-6.205v22.784h13.957v-3.303h-10.129v-6.836h9.139v-3.302h-9.139v-6.011h10.129v-3.336zm27.486 22.784 1.55-4.723h8.216l1.551 4.723h4.059l-7.919-22.788h-3.63l-7.919 22.788zm5.642-17.239 3.035 9.214h-6.071zm29.201 17.239-4.853-9.875c1.273-.406 2.373-1.23 3.121-2.338.749-1.109 1.102-2.437 1.003-3.771 0-4.525-3.134-6.806-8.381-6.806h-7.751v22.79h3.828v-9.247h4.421l4.389 9.247zm-13.033-12.55v-6.905h3.662c3.234 0 4.818.892 4.818 3.468s-1.584 3.434-4.818 3.434zm16.333-10.238v22.788h13.957v-3.303h-10.13v-6.836h9.14v-3.302h-9.14v-6.011h10.13v-3.336z"/><path d="m129.059 258.348c-8.736.002-17.45-.877-26.01-2.625-16.5084-3.384-32.1894-9.988-46.1483-19.436-20.7496-14.02-36.9919-33.761-46.7591-56.833-3.30011-7.814-5.81909-15.936-7.52006-24.247-3.496036-17.179-3.496036-34.887 0-52.066 3.38105-16.5232 9.97976-32.2182 19.41956-46.1895 14.007-20.7681 33.7309-37.0249 56.7819-46.8008 7.8073-3.303 15.9222-5.82422 24.226-7.52671 17.164-3.499142 34.856-3.499142 52.019 0 16.509 3.38406 32.19 9.98861 46.149 19.43691 20.749 14.0195 36.992 33.7609 46.759 56.8324 3.3 7.8143 5.819 15.9364 7.52 24.2477 3.496 17.179 3.496 34.887 0 52.066-3.381 16.523-9.98 32.218-19.42 46.189-14.007 20.768-33.731 37.025-56.782 46.801-7.807 3.303-15.922 5.824-24.226 7.526-8.559 1.748-17.273 2.627-26.009 2.625zm0-235.1983c-7.171-.0018-14.323.7197-21.349 2.1536-13.5496 2.7775-26.4205 8.1983-37.8779 15.9532-17.031 11.5071-30.3625 27.7108-38.3792 46.6477-2.7086 6.4139-4.7761 13.0808-6.1722 19.9018-2.8691 14.1-2.8691 28.634 0 42.733 2.775 13.562 8.191 26.444 15.939 37.912 11.4968 17.046 27.6861 30.39 46.6062 38.413 6.4082 2.711 13.0691 4.781 19.8841 6.178 14.087 2.872 28.608 2.872 42.695 0 13.55-2.777 26.421-8.198 37.878-15.953 17.031-11.507 30.363-27.711 38.379-46.648 2.709-6.414 4.777-13.08 6.173-19.902 2.869-14.099 2.869-28.633 0-42.733-2.775-13.5616-8.191-26.444-15.939-37.9116-11.497-17.0462-27.686-30.3896-46.606-38.4133-6.409-2.7111-13.069-4.7804-19.885-6.1778-7.025-1.4338-14.177-2.1553-21.346-2.1536z"/><path d="m618.94 258.348c-8.736.002-17.45-.877-26.01-2.625-16.508-3.384-32.189-9.988-46.148-19.436-20.75-14.02-36.992-33.761-46.759-56.833-3.3-7.814-5.819-15.936-7.52-24.247-3.496-17.179-3.496-34.887 0-52.066 3.381-16.5232 9.98-32.2182 19.419-46.1895 14.007-20.7681 33.731-37.0249 56.782-46.8008 7.808-3.303 15.923-5.82422 24.226-7.52671 17.164-3.499142 34.856-3.499142 52.02 0 16.508 3.38406 32.189 9.98861 46.148 19.43691 20.75 14.0195 36.992 33.7609 46.759 56.8324 3.3 7.8143 5.819 15.9364 7.52 24.2477 3.496 17.179 3.496 34.887 0 52.066-3.381 16.523-9.98 32.218-19.419 46.189-14.007 20.768-33.731 37.025-56.782 46.801-7.808 3.303-15.922 5.824-24.226 7.526-8.56 1.748-17.274 2.627-26.01 2.625zm0-235.1983c-7.17-.0018-14.323.7197-21.348 2.1536-13.55 2.7775-26.421 8.1983-37.879 15.9532-17.031 11.5071-30.362 27.7108-38.379 46.6477-2.708 6.4139-4.776 13.0808-6.172 19.9018-2.869 14.1-2.869 28.634 0 42.733 2.775 13.562 8.191 26.444 15.939 37.912 11.497 17.046 27.686 30.39 46.606 38.413 6.408 2.711 13.069 4.781 19.885 6.178 14.087 2.872 28.607 2.872 42.694 0 13.55-2.777 26.421-8.198 37.879-15.953 17.031-11.507 30.362-27.711 38.379-46.648 2.708-6.414 4.776-13.08 6.172-19.902 2.869-14.099 2.869-28.633 0-42.733-2.775-13.5616-8.191-26.444-15.939-37.9116-11.497-17.0462-27.686-30.3896-46.606-38.4133-6.408-2.7111-13.069-4.7804-19.885-6.1778-7.025-1.4338-14.176-2.1553-21.346-2.1536z"/></g></g></svg>