<svg fill="none" height="235" viewBox="0 0 1370 235" width="1370" xmlns="http://www.w3.org/2000/svg" xmlns:xlink="http://www.w3.org/1999/xlink"><clipPath id="a"><path d="m0 0h1370v235h-1370z"/></clipPath><g clip-path="url(#a)" fill="#fff"><path d="m282.317 21.3103h-23.421v192.1467h23.979v-140.072l46.005 99.972h21.468l46.842-100.8094v140.9094h23.978v-192.1467h-23.699l-57.441 119.7437z"/><path d="m74.8479 110.814 3.9235 13.028h2.936l4.2353-17.906h-3.2219l-2.7542 12.875-3.7416-12.875h-2.7801l-3.6636 12.794-2.7542-12.794h-3.2219l4.2352 17.906h2.9101zm13.2773-4.878v17.906h10.9928v-2.595h-7.9788v-5.372h7.1953v-2.595h-7.1953v-4.723h7.9768v-2.621zm21.6438 17.906 1.221-3.711h6.47l1.221 3.711h3.198l-6.238-17.906h-2.858l-6.236 17.906zm4.443-13.547 2.391 7.241h-4.781zm22.995 13.547-3.819-7.759c1.003-.319 1.869-.967 2.458-1.838s.867-1.915.789-2.963c0-3.556-2.468-5.346-6.595-5.346h-6.112v17.906h3.014v-7.266h3.481l3.458 7.266zm-10.263-9.862v-5.423h2.88c2.546 0 3.797.698 3.797 2.725 0 2.026-1.247 2.694-3.797 2.694zm12.861-8.044v17.906h10.993v-2.595h-7.983v-5.372h7.196v-2.595h-7.196v-4.723h7.977v-2.621z"/><path d="m696.022 22.0422v33.4948h53.545v160.719h39.454v-160.719h53.549v-33.4948zm162.326 0v194.2138h121.18v-33.214h-81.726v-50.664h73.272v-33.2134h-73.272v-43.6276h81.726v-33.4948zm282.662 60.2343c-6.48-42.5017-32.69-62.7675-71.3-62.7675-43.68 0-74.4 25.8951-74.4 85.848v27.584c0 59.388 30.72 85.848 74.4 85.848 40.02 0 64.53-19.14 71.02-62.768h-37.48c-4.23 19.703-13.81 29.554-33.54 29.554-22.83 0-34.95-16.606-34.95-52.634v-27.584c0-37.1539 12.12-52.6347 34.95-52.6347 19.16 0 29.87 11.2588 33.54 29.5542zm61.43-60.2343h-39.45v194.2138h39.45v-83.878h67.36v83.878h39.45v-194.2138h-39.45v77.1224h-67.36z"/><path d="m117.645 235c-7.962.002-15.905-.798-23.7064-2.387-15.0504-3.078-29.3465-9.086-42.0724-17.681-18.9136-12.753-33.7184-30.71-42.62106-51.696-3.00823-7.109-5.30426-14.498-6.85451-22.059-3.186856-15.626-3.186856-31.734 0-47.3604 3.08187-15.0297 9.09677-29.3061 17.70137-42.0147 12.7689-18.8904 30.7487-33.6771 51.7611-42.56862 7.1175-3.00452 14.5154-5.29774 22.0855-6.84608 15.6454-3.182935 31.7734-3.182935 47.4184 0 15.049 3.07805 29.343 9.0855 42.067 17.6796 18.913 12.7534 33.718 30.711 42.62 51.6974 3.008 7.1088 5.305 14.4976 6.855 22.0584 3.187 15.6264 3.187 31.7344 0 47.3604-3.081 15.03-9.096 29.306-17.701 42.015-12.768 18.891-30.748 33.678-51.76 42.57-7.118 3.005-14.515 5.298-22.086 6.847-7.802 1.588-15.744 2.387-23.707 2.385zm0-213.942c-6.536-.0019-13.056.6542-19.4602 1.9583-12.351 2.527-24.083 7.4583-34.5264 14.5125-15.5254 10.4666-27.6786 25.2055-34.987 42.4309-2.469 5.8341-4.3536 11.8979-5.6263 18.1029-2.6157 12.8254-2.6157 26.0464 0 38.8724 2.5299 12.337 7.4673 24.056 14.5304 34.487 10.48 15.506 25.2374 27.643 42.4842 34.942 5.8412 2.466 11.9125 4.348 18.1251 5.619 12.8412 2.613 26.0792 2.613 38.9202 0 12.352-2.526 24.084-7.457 34.529-14.511 15.524-10.467 27.677-25.207 34.985-42.432 2.469-5.834 4.353-11.898 5.626-18.103 2.616-12.826 2.616-26.047 0-38.8724-2.53-12.3362-7.468-24.054-14.531-34.4849-10.479-15.5066-25.237-27.6448-42.484-34.9441-5.841-2.4659-11.912-4.3483-18.125-5.6193-6.404-1.3035-12.924-1.9589-19.46-1.9564z"/><path d="m564.199 235c-7.962.002-15.904-.798-23.706-2.387-15.051-3.078-29.347-9.086-42.073-17.681-18.913-12.753-33.718-30.71-42.621-51.696-3.008-7.109-5.304-14.498-6.854-22.059-3.187-15.626-3.187-31.734 0-47.3604 3.082-15.0297 9.097-29.3061 17.701-42.0147 12.769-18.8904 30.749-33.6771 51.761-42.56862 7.118-3.00452 14.516-5.29774 22.086-6.84608 15.645-3.182935 31.773-3.182935 47.419 0 15.048 3.07805 29.342 9.0855 42.066 17.6796 18.913 12.7534 33.718 30.711 42.62 51.6974 3.009 7.1088 5.305 14.4976 6.856 22.0584 3.186 15.6264 3.186 31.7344 0 47.3604-3.082 15.03-9.097 29.306-17.702 42.015-12.768 18.891-30.748 33.678-51.76 42.57-7.117 3.005-14.515 5.298-22.085 6.847-7.803 1.588-15.745 2.387-23.708 2.385zm0-213.942c-6.536-.0019-13.056.6542-19.46 1.9583-12.351 2.527-24.083 7.4583-34.526 14.5125-15.526 10.4666-27.679 25.2055-34.987 42.4309-2.469 5.8341-4.354 11.8979-5.627 18.1029-2.615 12.8254-2.615 26.0464 0 38.8724 2.53 12.337 7.468 24.056 14.531 34.487 10.48 15.506 25.237 27.643 42.484 34.942 5.841 2.466 11.912 4.348 18.125 5.619 12.842 2.613 26.079 2.613 38.92 0 12.352-2.526 24.085-7.457 34.529-14.511 15.525-10.467 27.677-25.207 34.985-42.432 2.469-5.834 4.354-11.898 5.626-18.103 2.616-12.826 2.616-26.047 0-38.8724-2.53-12.3362-7.467-24.054-14.53-34.4849-10.48-15.5066-25.237-27.6448-42.484-34.9441-5.842-2.4659-11.913-4.3483-18.126-5.6193-6.404-1.3035-12.924-1.9589-19.46-1.9564z"/><path d="m1360.86 45.7865c6.15-.9413 9.14-4.6652 9.14-10.2716 0-6.3021-3.81-10.5581-12.7-10.5581h-3.61c-8.89 0-12.7 4.256-12.7 10.5581 0 5.6064 2.79 9.2894 9.14 10.2306v-4.5424c-3.44-.7366-5-2.4554-5-5.6892 0-3.7649 2.54-5.8111 8.57-5.8111h3.6c6.11 0 8.56 2.0462 8.56 5.8111 0 3.1101-1.55 4.9516-4.99 5.6892zm-7.17 23.1622h3.61c8.89 0 12.7-4.2559 12.7-10.599 0-6.3021-3.81-10.558-12.7-10.558h-3.61c-8.89 0-12.7 4.2559-12.7 10.558 0 6.3431 3.81 10.599 12.7 10.599zm3.61-16.412c6.1 0 8.56 2.0462 8.56 5.811 0 3.7649-2.46 5.852-8.56 5.852h-3.61c-6.1 0-8.56-2.0871-8.56-5.852 0-3.7648 2.46-5.811 8.56-5.811zm12.33 24.9649v-4.5035h-28.27v4.5833h18.81l-13.36 6.345v3.3557l13.48 6.4658h-18.93v4.5833h28.27v-4.5424l-16.39-8.1436zm-17.94 35.6434c0 6.548 3.27 10.395 9.01 10.395 5.82 0 8.93-3.893 8.93-10.395v-9.617h-28.27v4.747h10.33zm4.09-4.87h9.71v4.379c0 4.338-1.72 6.139-4.79 6.139-3.24 0-4.92-1.797-4.92-6.139zm-14.42 18.416 5.86 1.923v10.19l-5.86 1.923v5.034l28.27-9.822v-4.501l-28.27-9.822zm21.39 6.992-11.44 3.765v-7.529zm6.88 29.997h-19.46l19.46-11.617v-4.092h-28.27v4.583h19.22l-19.22 11.499v4.215h28.27zm0 7.161-16.47 8.799h-11.8v4.748h11.8l16.47 8.798v-5.484l-11.31-5.689 11.31-5.642z"/></g></svg>